<svg width="72" height="72" viewBox="0 0 72 72" fill="none" xmlns="http://www.w3.org/2000/svg">
<path d="M12 12H19.4384C20.1884 12 20.5634 12 20.8346 12.2118C21.1059 12.4236 21.1968 12.7874 21.3787 13.5149L23.2425 20.9701C23.6063 22.4253 23.7882 23.1528 24.3307 23.5764C24.8733 24 25.6232 24 27.1231 24H30" stroke="#222222" stroke-width="2" stroke-linecap="round"/>
<path d="M54 51H20.7749C19.5086 51 18.8755 51 18.5762 50.5847C18.2769 50.1694 18.4771 49.5688 18.8775 48.3675L20.0883 44.7351C20.5283 43.415 20.7483 42.755 21.2721 42.3775C21.7959 42 22.4916 42 23.883 42H42" stroke="#222222" stroke-width="2" stroke-linecap="round" stroke-linejoin="round"/>
<path d="M49.7639 42H25.6943C24.7166 42 23.8822 41.2932 23.7215 40.3288L21.2911 25.7466C21.1387 24.8323 21.8438 24 22.7707 24H58.382C59.1253 24 59.6088 24.7823 59.2764 25.4472L51.5528 40.8944C51.214 41.572 50.5215 42 49.7639 42Z" stroke="#222222" stroke-width="2" stroke-linecap="round"/>
<circle cx="51" cy="60" r="3" fill="#222222"/>
<circle cx="27" cy="60" r="3" fill="#222222"/>
</svg>
