<svg width="72" height="72" viewBox="0 0 72 72" fill="none" xmlns="http://www.w3.org/2000/svg">
<circle cx="36" cy="24" r="11" stroke="#33363F" stroke-width="2" stroke-linecap="round"/>
<path d="M44.0718 23C45.1327 21.1625 46.88 19.8217 48.9294 19.2726C50.9789 18.7234 53.1625 19.0109 55 20.0718C56.8375 21.1327 58.1783 22.88 58.7274 24.9294C59.2766 26.9789 58.9891 29.1625 57.9282 31C56.8673 32.8375 55.12 34.1783 53.0706 34.7274C51.0211 35.2766 48.8375 34.9891 47 33.9282C45.1625 32.8673 43.8217 31.12 43.2726 29.0706C42.7234 27.0211 43.0109 24.8375 44.0718 23L44.0718 23Z" stroke="#33363F" stroke-width="2"/>
<path d="M14.0718 23C15.1327 21.1625 16.88 19.8217 18.9294 19.2726C20.9789 18.7234 23.1625 19.0109 25 20.0718C26.8375 21.1327 28.1783 22.88 28.7274 24.9294C29.2766 26.9789 28.9891 29.1625 27.9282 31C26.8673 32.8375 25.12 34.1783 23.0706 34.7274C21.0211 35.2766 18.8375 34.9891 17 33.9282C15.1625 32.8673 13.8217 31.12 13.2726 29.0706C12.7234 27.0211 13.0109 24.8375 14.0718 23L14.0718 23Z" stroke="#33363F" stroke-width="2"/>
<path d="M50.9996 42L50.9996 41L50.9995 41L50.9996 42ZM62.7916 52.8877L63.767 52.6675L63.7669 52.667L62.7916 52.8877ZM50.6451 54L49.6648 54.1974L49.8264 55H50.6451V54ZM44.3443 44.1309L43.7396 43.3344L42.5828 44.2128L43.8161 44.98L44.3443 44.1309ZM50.9996 42V43C54.8965 43 57.4014 44.7861 59.0463 46.936C60.7187 49.1218 61.4939 51.6838 61.8162 53.1084L62.7916 52.8877L63.7669 52.667C63.4161 51.1168 62.5584 48.235 60.6347 45.7206C58.6834 43.1703 55.6289 41 50.9996 41V42ZM62.7916 52.8877L61.8161 53.1079C61.8144 53.1004 61.813 53.0833 61.8183 53.0624C61.8233 53.0431 61.8318 53.0287 61.8397 53.0193C61.8557 53.0003 61.8704 53 61.8668 53V54V55C63.0533 55 64.0527 53.9328 63.767 52.6675L62.7916 52.8877ZM61.8668 54V53H50.6451V54V55H61.8668V54ZM50.6451 54L51.6254 53.8026C51.0154 50.7736 49.3679 46.0782 44.8725 43.2817L44.3443 44.1309L43.8161 44.98C47.622 47.3475 49.0984 51.3851 49.6648 54.1974L50.6451 54ZM44.3443 44.1309L44.949 44.9273C46.4446 43.7917 48.4028 43.0001 50.9996 43L50.9996 42L50.9995 41C47.9587 41.0001 45.5772 41.9391 43.7396 43.3344L44.3443 44.1309Z" fill="#33363F"/>
<path d="M20.9996 42L20.9996 41L20.9996 41L20.9996 42ZM27.6559 44.1309L28.1841 44.98L29.4174 44.2128L28.2606 43.3344L27.6559 44.1309ZM21.3551 54V55H22.1738L22.3354 54.1974L21.3551 54ZM10.1324 54L10.1321 55H10.1324V54ZM9.20862 52.8877L8.23328 52.667L8.23318 52.6674L9.20862 52.8877ZM20.9996 42V43C23.5968 43 25.5555 43.7917 27.0512 44.9273L27.6559 44.1309L28.2606 43.3344C26.4228 41.939 24.0407 41 20.9996 41V42ZM27.6559 44.1309L27.1277 43.2817C22.6321 46.0782 20.9848 50.7736 20.3748 53.8026L21.3551 54L22.3354 54.1974C22.9018 51.3851 24.378 47.3475 28.1841 44.98L27.6559 44.1309ZM21.3551 54V53H10.1324V54V55H21.3551V54ZM10.1324 54L10.1328 53C10.1292 53 10.1443 53.0004 10.1605 53.0197C10.1684 53.0291 10.177 53.0436 10.1818 53.0629C10.1871 53.0836 10.1857 53.1006 10.1841 53.108L9.20862 52.8877L8.23318 52.6674C7.94769 53.9317 8.94496 54.9996 10.1321 55L10.1324 54ZM9.20862 52.8877L10.184 53.1084C10.5063 51.6837 11.2813 49.1218 12.9536 46.936C14.5983 44.7862 17.1029 43.0001 20.9997 43L20.9996 42L20.9996 41C16.3704 41.0001 13.3162 43.1705 11.3651 45.7208C9.44157 48.2351 8.58403 51.1169 8.23328 52.667L9.20862 52.8877Z" fill="#33363F"/>
<path d="M36 42C48.64 42 50.6287 52.6514 50.9416 56.0029C50.9929 56.5528 50.5523 57 50 57H22C21.4477 57 21.0071 56.5528 21.0584 56.003C21.3713 52.6514 23.36 42 36 42Z" stroke="#33363F" stroke-width="2" stroke-linecap="round"/>
</svg>
