<svg width="72" height="72" viewBox="0 0 72 72" fill="none" xmlns="http://www.w3.org/2000/svg">
<path d="M21 21.3958V10.612C21 8.46614 21 7.3932 21.6896 6.79511C22.3792 6.19703 23.4414 6.34877 25.5657 6.65224L57.8485 11.2641C60.3047 11.615 61.5327 11.7904 62.2664 12.6363C63 13.4822 63 14.7227 63 17.2038V54.7962C63 57.2773 63 58.5178 62.2664 59.3637C61.5327 60.2096 60.3047 60.385 57.8485 60.7359L25.5657 65.3478C23.4414 65.6512 22.3792 65.803 21.6896 65.2049C21 64.6068 21 63.5339 21 61.388V51.1979" stroke="#33363F" stroke-width="2"/>
<path d="M48 36L48.7809 35.3753L49.2806 36L48.7809 36.6247L48 36ZM12 37C11.4477 37 11 36.5523 11 36C11 35.4477 11.4477 35 12 35V36V37ZM36 21L36.7809 20.3753L48.7809 35.3753L48 36L47.2191 36.6247L35.2191 21.6247L36 21ZM48 36L48.7809 36.6247L36.7809 51.6247L36 51L35.2191 50.3753L47.2191 35.3753L48 36ZM48 36V37H12V36V35H48V36Z" fill="#33363F"/>
</svg>
