<svg width="72" height="72" viewBox="0 0 72 72" fill="none" xmlns="http://www.w3.org/2000/svg">
<path d="M6 36L5.21913 35.3753L4.71938 36L5.21913 36.6247L6 36ZM33 37C33.5523 37 34 36.5523 34 36C34 35.4477 33.5523 35 33 35V36V37ZM18 21L17.2191 20.3753L5.21913 35.3753L6 36L6.78087 36.6247L18.7809 21.6247L18 21ZM6 36L5.21913 36.6247L17.2191 51.6247L18 51L18.7809 50.3753L6.78087 35.3753L6 36ZM6 36V37H33V36V35H6V36Z" fill="#33363F"/>
<path d="M30 24.3958V15.3885C30 13.7702 30 12.961 30.474 12.4015C30.9479 11.842 31.7461 11.709 33.3424 11.4429L59.0136 7.1644C62.2567 6.62388 63.8782 6.35363 64.9391 7.25232C66 8.15102 66 9.79493 66 13.0828V58.9172C66 62.2051 66 63.849 64.9391 64.7477C63.8782 65.6464 62.2567 65.3761 59.0136 64.8356L33.3424 60.5571C31.7461 60.291 30.9479 60.158 30.474 59.5985C30 59.039 30 58.2298 30 56.6115V48.1979" stroke="#33363F" stroke-width="2"/>
</svg>
